<svg width="512" height="512" viewBox="0 0 512 512" fill="none" xmlns="http://www.w3.org/2000/svg" role="img" aria-labelledby="title desc">
  <title id="title">SERKO logo</title>
  <desc id="desc">Premium sports ticketing logo with shield, ticket cutout and football energy lines.</desc>
  <defs>
    <linearGradient id="bg" x1="74" y1="58" x2="438" y2="454" gradientUnits="userSpaceOnUse">
      <stop stop-color="#111827"/>
      <stop offset="0.55" stop-color="#2B0B12"/>
      <stop offset="1" stop-color="#9D0208"/>
    </linearGradient>
    <linearGradient id="flame" x1="128" y1="132" x2="391" y2="384" gradientUnits="userSpaceOnUse">
      <stop stop-color="#FCBF49"/>
      <stop offset="0.42" stop-color="#F77F00"/>
      <stop offset="1" stop-color="#D62828"/>
    </linearGradient>
    <linearGradient id="ticket" x1="136" y1="181" x2="380" y2="332" gradientUnits="userSpaceOnUse">
      <stop stop-color="#FFF8E8"/>
      <stop offset="1" stop-color="#FFD166"/>
    </linearGradient>
    <filter id="shadow" x="20" y="20" width="472" height="472" filterUnits="userSpaceOnUse" color-interpolation-filters="sRGB">
      <feDropShadow dx="0" dy="24" stdDeviation="24" flood-color="#111827" flood-opacity="0.28"/>
    </filter>
  </defs>
  <rect width="512" height="512" rx="116" fill="#F7EFE1"/>
  <g filter="url(#shadow)">
    <path d="M256 52L415 111V238C415 338 354 423 256 462C158 423 97 338 97 238V111L256 52Z" fill="url(#bg)"/>
    <path d="M256 76L392 126V236C392 321 340 397 256 435C172 397 120 321 120 236V126L256 76Z" stroke="white" stroke-opacity="0.16" stroke-width="8"/>
  </g>
  <path d="M145 171C170 134 211 112 259 112C318 112 364 145 385 194C360 177 333 169 304 172C278 175 258 185 241 199C211 224 180 229 145 217V171Z" fill="url(#flame)"/>
  <path d="M134 251C134 239 144 229 156 229H356C368 229 378 239 378 251V286C362 286 349 299 349 315C349 331 362 344 378 344V379C378 391 368 401 356 401H156C144 401 134 391 134 379V344C150 344 163 331 163 315C163 299 150 286 134 286V251Z" fill="url(#ticket)"/>
  <path d="M203 262H309" stroke="#111827" stroke-opacity="0.22" stroke-width="12" stroke-linecap="round"/>
  <path d="M203 315H277" stroke="#111827" stroke-opacity="0.22" stroke-width="12" stroke-linecap="round"/>
  <path d="M203 368H309" stroke="#111827" stroke-opacity="0.22" stroke-width="12" stroke-linecap="round"/>
  <path d="M176 212C200 220 225 214 247 195C266 179 288 168 317 167C337 166 357 170 377 180" stroke="white" stroke-opacity="0.32" stroke-width="9" stroke-linecap="round"/>
  <path d="M128 142L170 156" stroke="#FCBF49" stroke-width="13" stroke-linecap="round"/>
  <path d="M342 111L384 80" stroke="#FCBF49" stroke-width="13" stroke-linecap="round"/>
  <path d="M395 151L431 137" stroke="#D62828" stroke-width="13" stroke-linecap="round"/>
  <circle cx="323" cy="315" r="24" fill="#111827"/>
  <path d="M323 291V339M299 315H347" stroke="#FFF8E8" stroke-width="8" stroke-linecap="round"/>
  <text x="256" y="360" text-anchor="middle" font-family="Sora, Arial, sans-serif" font-size="72" font-weight="900" letter-spacing="8" fill="#111827">SERKO</text>
</svg>
